<?xml version="1.0" encoding="utf-8"?>
<!-- Generator: Adobe Illustrator 22.1.0, SVG Export Plug-In . SVG Version: 6.00 Build 0)  -->
<svg version="1.1" id="Слой_1" xmlns="http://www.w3.org/2000/svg" xmlns:xlink="http://www.w3.org/1999/xlink" x="0px" y="0px"
	 viewBox="0 0 504 504" style="enable-background:new 0 0 504 504;" xml:space="preserve">
<style type="text/css">
	.st0{fill-rule:evenodd;clip-rule:evenodd;fill:#DD9024;}
	.st1{fill-rule:evenodd;clip-rule:evenodd;}
	.st2{fill-rule:evenodd;clip-rule:evenodd;fill:#1B1B1B;}
</style>
<g>
	<polygon class="st0" points="436.3,151.9 436.3,51.5 67.7,51.5 67.7,151.9 190.1,151.9 190.1,452.5 313.8,452.5 313.8,151.9 	"/>
	<path class="st1" d="M329.4,167.5V468H174.6V167.5H52.2V36h399.6v131.5H329.4L329.4,167.5z M436.3,145v-35
		c-45-8.7-126.4-14.4-144.6-58.4h-14.2C299.6,90.2,374.9,116.2,436.3,145L436.3,145z M260,51.5h-22.8
		c12.3,47.5,58.7,71.2,96.2,100.4h37.5c-5.9-7-11.9-14.6-17.7-22.5C333.1,102.1,324,137.3,260,51.5L260,51.5z M381.8,151.9h34.4
		c-7.5-3.8-13.2-6.7-16.1-7.8C371.4,132.6,373.1,139.5,381.8,151.9L381.8,151.9z M436.3,95.8V81.8c-28.9-8.4-58.3-16.2-83.1-30.2
		h-49.5c9.5,12,22,25.7,34,25.7c0,0-34.5-39.4-0.9-12C371.8,93.7,403.2,91.5,436.3,95.8L436.3,95.8z M436.3,67V51.5h-24.7
		C418.9,58,427.1,63.6,436.3,67L436.3,67z M398.1,51.5h-21.8c9.3,4.6,18.9,7.5,28.7,7.5C406.1,59.1,403.2,56.1,398.1,51.5
		L398.1,51.5z M223,51.5h-12.6C227.1,62.8,228.8,60.2,223,51.5L223,51.5z M184.7,51.5h-23.4c24.9,15.6,39.8,23,5.9,14.6
		c-12.9-3.3-23.9-8.4-33.5-14.6h-22.6c18.1,13.7,37.8,25.2,55.6,27.9c16.9,2.7,102.4,67.2,147.1,105v-25.9
		c-9.5-7.2-19.4-13.8-29.3-19.2C241.5,115.7,219.8,77.9,184.7,51.5L184.7,51.5z M84.5,51.5H67.7v4.8C74,68.9,81,80.2,91.9,91.4
		c49.2,50,138.6,55.4,141.7,47.8c0.4-0.4,0-1.8-1.3-2.7C198.2,95.2,133.6,108,84.5,51.5L84.5,51.5z M67.7,105.2v41
		c2.1,1.9,4.6,3.8,6.8,5.7h22.7c-6.8-6.4-13.7-14.1-20.8-23.3c16.7,2.3,31.8,13.7,48.1,23.3h65.6v18.6
		c44.9,10.4,90.8,35.7,123.7,64.3V214c-27.1-19.5-53.2-37.7-59.4-41.1C227.5,158.2,129.6,138,67.7,105.2L67.7,105.2z M190.1,192.2
		v7.4c49.4,11.3,83.8,39.7,123.7,58.8v-16.1C261.1,209.7,222.1,199.4,190.1,192.2L190.1,192.2z M190.1,222.8v13.6
		c50.8,11.8,83.5,60.9,123.7,96.5v-27C275.1,274.3,248.3,241.8,190.1,222.8L190.1,222.8z M190.1,253.8v31.8
		c32.6,18.3,65.2,40.4,60.3,45.4c0,0-31.6-18.4-60.3-33.1v14.4c5.1,2.9,9.5,5.9,12.5,8.6c30.9,27.9,76.6,41.6,111.2,73.2v-39.4
		c-28.7-29.2-64.4-61-81.1-76.3C219.2,265.9,204.9,258.8,190.1,253.8L190.1,253.8z M190.1,336.8v23c19.1,13.8,32.4,25.8,32.4,32.7
		c0,2.1-16.3-10.6-32.4-21.9v14.2c21.7,20.9,49,48.5,62.1,67.6h27.6c-13.2-17.3-34.5-37.8-37.8-55.1
		C238.8,380.3,217.7,359,190.1,336.8L190.1,336.8z M190.1,415v25.5c3.3,3.7,6.4,7.8,9.6,12h31.6c-3.8-7.4-8.3-13.8-17.2-15.7
		C210.9,436.1,201.8,427.2,190.1,415L190.1,415z M287.8,452.5h16.4c-14.6-28.5-35.9-70.1,2.5-20.1c2.5,3.3,5,6.5,7.2,9.5v-21.6
		c-4.6-9.2-10.6-19.6-19.1-30.8c-9.7-13.3-63.3-40.7-51.4-26.1C253.4,375.5,275.5,422.8,287.8,452.5z"/>
</g>
</svg>
