<?xml version="1.0" encoding="utf-8"?>
<!-- Generator: Adobe Illustrator 22.1.0, SVG Export Plug-In . SVG Version: 6.00 Build 0)  -->
<svg version="1.1" id="Слой_1" xmlns="http://www.w3.org/2000/svg" xmlns:xlink="http://www.w3.org/1999/xlink" x="0px" y="0px"
	 viewBox="0 0 504 504" style="enable-background:new 0 0 504 504;" xml:space="preserve">
<style type="text/css">
	.st0{fill-rule:evenodd;clip-rule:evenodd;fill:#1B1B1B;}
	.st1{fill-rule:evenodd;clip-rule:evenodd;fill:#EBEBEB;}
</style>
<g>
	<path class="st0" d="M239.9,186.7H108.6V84.4h289.3v78.2L264.9,317.3h132.9v102.3H106.2v-78.2L239.9,186.7L239.9,186.7L239.9,186.7
		z M265.7,408.3l-4-0.8c-26.6-6.4-45.9-8.1-102.3-8.1c-11.3,0-27.4,0-41.1,0.8v8.1H265.7L265.7,408.3L265.7,408.3z M118.2,376.9h4
		c6.4,0,12.1-0.8,12.9-0.8c4.8-0.8,37.1-1.6,58.8-1.6c33.8,0,54,2.4,72.5,8.9c11.3,4,18.5,7.3,35.5,18.5c3.2,2.4,7.3,4.8,10.5,7.3
		h34.6c-12.1-7.3-27.4-15.3-46.7-25c-20.1-9.7-24.2-12.9-24.2-16.1c0-4.8,6.4-7.3,24.2-8.9c35.5-4,62-9.7,81.4-18.5
		c1.6-0.8,3.2-1.6,4.8-2.4v-8.1h-30.6c-10.5,3.2-22.6,5.6-38.7,8.1c-31.4,4.8-39.5,7.3-54.8,15.3c-12.9,7.3-15.3,8.1-36.3,8.9
		c-5.6,0-14.5,0.8-18.5,0.8c-4,0-14.5,0.8-23.4,0.8c-8.9,0-20.9,0.8-27.4,0.8c-4.8,0-20.9,0.8-39.5,0.8v11.3H118.2L118.2,376.9z
		 M119.9,344.7c13.7,0,25,0,30.6-0.8c35.5-2.4,65.3-5.6,119.3-14.5l-30.6,0l5.6-6.4c-32.2,4-70.1,8.1-95.1,9.7
		c-9.7,0.8-15.3,0.8-20.9,0.8L119.9,344.7L119.9,344.7L119.9,344.7z M159.3,298.7c5.6,0,12.1-0.8,15.3-0.8c3.2,0,8.1-0.8,12.1-0.8
		c32.2-2.4,61.2-5.6,89.4-9.7l16.9-19.3c-25,7.3-38.7,9.7-58,11.3c-15.3,1.6-41.1,4-52.4,4.8c-3.2,0-7.3,0.8-9.7,0.8L159.3,298.7
		L159.3,298.7L159.3,298.7z M189.2,264.1c32.2-3.2,54-6.4,69.3-9.7c6.4-0.8,18.5-4,27.4-5.6c8.9-1.6,16.9-3.2,17.7-4
		c3.2-1.6-15.3-2.4-36.3-3.2c-19.3,0-25.8,0-52.4,3.2l-12.1,1.6L189.2,264.1L189.2,264.1L189.2,264.1z M220.6,228.6
		c2.4,0,5.6,0,8.1,0c6.4,0,13.7-0.8,16.1-0.8c2.4,0,8.9-0.8,14.5-0.8c5.6,0,12.9-0.8,16.1-0.8c3.2,0,15.3-0.8,27.4-1.6
		c7.3-0.8,18.5-0.8,29.8-1.6l8.1-9.7c-12.1,0.8-39.5,4-45.1,4c-4,0-8.9,0.8-11.3,0.8c-2.4,0-9.7,0.8-15.3,0.8s-14.5,0.8-19.3,0.8
		c-4,0-12.9,0.8-21.8,0.8L220.6,228.6L220.6,228.6L220.6,228.6z M248.8,195.6c23.4-3.2,47.5-7.3,83.8-13.7c12.9-2.4,29-5.6,41.1-7.3
		l12.9-15.3v-0.8c-22.6,3.2-43.5,7.3-64.5,12.1c-19.3,4-41.1,8.1-62,12.1L248.8,195.6L248.8,195.6L248.8,195.6z M121.5,174.6
		l5.6-0.8c41.1-4,58.8-7.3,113.6-17.7c53.2-9.7,68.5-12.9,102.3-17.7c8.1-1.6,25-4,43.5-6.4v-24.2c-46.7,5.6-87.8,15.3-157.9,35.5
		c-41.9,12.1-70.1,18.5-108,24.2v7.3H121.5L121.5,174.6z M121.5,147.3c40.3-4,63.7-8.1,81.4-14.5c13.7-4.8,11.3-6.4-8.9-6.4
		c-18.5,0-41.9,1.6-72.5,4.8V147.3L121.5,147.3L121.5,147.3z M121.5,109.4c38.7-4,75.7-8.1,81.4-8.9c1.6,0,16.1-1.6,31.4-4l6.4-0.8
		H121.5V109.4L121.5,109.4L121.5,109.4z M385.8,360.8c-60.4,13.7-65.3,15.3-62,15.3c7.3,1.6,46.7,1.6,62,0.8V360.8z"/>
	<path class="st1" d="M385.8,360.8c-60.4,13.7-65.3,15.3-62,15.3c7.3,1.6,46.7,1.6,62,0.8V360.8L385.8,360.8z M121.5,109.4
		c38.7-4,75.7-8.1,81.4-8.9c1.6,0,16.1-1.6,31.4-4l6.4-0.8H121.5V109.4L121.5,109.4L121.5,109.4z M121.5,147.3
		c40.3-4,63.7-8.1,81.4-14.5c13.7-4.8,11.3-6.4-8.9-6.4c-18.5,0-41.9,1.6-72.5,4.8V147.3L121.5,147.3L121.5,147.3z M121.5,174.6
		h-0.8v-7.3c37.9-5.6,66.1-12.1,108-24.2c70.1-20.1,111.2-29.8,157.9-35.5v24.2c-18.5,2.4-35.5,4.8-43.5,6.4
		c-33.8,4.8-49.2,8.1-102.3,17.7c-54.8,10.5-72.5,13.7-113.6,17.7L121.5,174.6L121.5,174.6z M248.8,195.6
		c23.4-3.2,47.5-7.3,83.8-13.7c12.9-2.4,29-5.6,41.1-7.3l12.9-15.3v-0.8c-22.6,3.2-43.5,7.3-64.5,12.1c-19.3,4-41.1,8.1-62,12.1
		L248.8,195.6L248.8,195.6L248.8,195.6z M220.6,228.6c2.4,0,5.6,0,8.1,0c6.4,0,13.7-0.8,16.1-0.8c2.4,0,8.9-0.8,14.5-0.8
		c5.6,0,12.9-0.8,16.1-0.8c3.2,0,15.3-0.8,27.4-1.6c7.3-0.8,18.5-0.8,29.8-1.6l8.1-9.7c-12.1,0.8-39.5,4-45.1,4
		c-4,0-8.9,0.8-11.3,0.8c-2.4,0-9.7,0.8-15.3,0.8s-14.5,0.8-19.3,0.8c-4,0-12.9,0.8-21.8,0.8L220.6,228.6L220.6,228.6L220.6,228.6z
		 M189.2,264.1c32.2-3.2,54-6.4,69.3-9.7c6.4-0.8,18.5-4,27.4-5.6c8.9-1.6,16.9-3.2,17.7-4c3.2-1.6-15.3-2.4-36.3-3.2
		c-19.3,0-25.8,0-52.4,3.2l-12.1,1.6L189.2,264.1L189.2,264.1L189.2,264.1z M159.3,298.7c5.6,0,12.1-0.8,15.3-0.8
		c3.2,0,8.1-0.8,12.1-0.8c32.2-2.4,61.2-5.6,89.4-9.7l16.9-19.3c-25,7.3-38.7,9.7-58,11.3c-15.3,1.6-41.1,4-52.4,4.8
		c-3.2,0-7.3,0.8-9.7,0.8L159.3,298.7L159.3,298.7L159.3,298.7z M119.9,344.7c13.7,0,25,0,30.6-0.8c35.5-2.4,65.3-5.6,119.3-14.5
		l-30.6,0l5.6-6.4c-32.2,4-70.1,8.1-95.1,9.7c-9.7,0.8-15.3,0.8-20.9,0.8L119.9,344.7L119.9,344.7L119.9,344.7z M118.2,376.9h-0.8
		v-11.3c18.5,0,34.6-0.8,39.5-0.8c6.4,0,18.5-0.8,27.4-0.8c8.9,0,19.3-0.8,23.4-0.8c4,0,12.9-0.8,18.5-0.8
		c20.9-0.8,23.4-1.6,36.3-8.9c15.3-8.1,23.4-10.5,54.8-15.3c16.1-2.4,28.2-4.8,38.7-8.1h30.6v8.1c-1.6,0.8-3.2,1.6-4.8,2.4
		c-19.3,8.9-45.9,14.5-81.4,18.5c-17.7,1.6-24.2,4-24.2,8.9c0,3.2,4,6.4,24.2,16.1c19.3,9.7,34.6,17.7,46.7,25h-34.6
		c-3.2-2.4-7.3-4.8-10.5-7.3c-16.9-11.3-24.2-14.5-35.5-18.5c-18.5-6.4-38.7-8.9-72.5-8.9c-21.8,0-54,0.8-58.8,1.6
		c-0.8,0-6.4,0.8-12.9,0.8H118.2L118.2,376.9z M265.7,408.3l-4-0.8c-26.6-6.4-45.9-8.1-102.3-8.1c-11.3,0-27.4,0-41.1,0.8v8.1H265.7
		L265.7,408.3z"/>
</g>
</svg>
